<svg width="30" height="30" viewBox="0 0 30 30" fill="none" xmlns="http://www.w3.org/2000/svg">
<path d="M26.5 14.625C26.5043 16.2749 26.1188 17.9024 25.375 19.375C24.493 21.1397 23.1372 22.624 21.4593 23.6616C19.7814 24.6993 17.8478 25.2493 15.875 25.25C14.2252 25.2543 12.5976 24.8689 11.125 24.125L4 26.5L6.375 19.375C5.63116 17.9024 5.2457 16.2749 5.25 14.625C5.25076 12.6522 5.80076 10.7186 6.8384 9.04072C7.87603 7.36285 9.36032 6.00699 11.125 5.12504C12.5976 4.3812 14.2252 3.99573 15.875 4.00004H16.5C19.1054 4.14378 21.5663 5.24349 23.4114 7.08861C25.2565 8.93373 26.3563 11.3946 26.5 14V14.625Z" fill="#ED1C24" stroke="#ED1C24" stroke-linecap="round" stroke-linejoin="round"/>
</svg>
