<svg width="19" height="19" viewBox="0 0 19 19" fill="none" xmlns="http://www.w3.org/2000/svg">
<path fill-rule="evenodd" clip-rule="evenodd" d="M15.2684 12.6353C15.2218 12.3785 15.2533 12.1136 15.3587 11.8748C15.459 11.6407 15.6256 11.441 15.838 11.3003C16.0504 11.1597 16.2993 11.0842 16.5541 11.0832H16.6253C17.0453 11.0832 17.448 10.9164 17.7449 10.6194C18.0418 10.3225 18.2087 9.91976 18.2087 9.49984C18.2087 9.07991 18.0418 8.67718 17.7449 8.38025C17.448 8.08332 17.0453 7.9165 16.6253 7.9165H16.4907C16.236 7.91549 15.9871 7.84 15.7747 7.69934C15.5623 7.55868 15.3957 7.35899 15.2953 7.12484V7.0615C15.1899 6.82272 15.1585 6.55785 15.2051 6.30104C15.2516 6.04422 15.3741 5.80725 15.5566 5.62067L15.6041 5.57317C15.7513 5.42612 15.8681 5.2515 15.9478 5.05928C16.0274 4.86707 16.0684 4.66104 16.0684 4.45296C16.0684 4.24489 16.0274 4.03885 15.9478 3.84664C15.8681 3.65443 15.7513 3.4798 15.6041 3.33275C15.457 3.18554 15.2824 3.06876 15.0902 2.98908C14.898 2.9094 14.6919 2.86838 14.4839 2.86838C14.2758 2.86838 14.0698 2.9094 13.8775 2.98908C13.6853 3.06876 13.5107 3.18554 13.3637 3.33275L13.3162 3.38025C13.1296 3.56276 12.8926 3.68519 12.6358 3.73176C12.379 3.77832 12.1141 3.74689 11.8753 3.6415C11.6412 3.54115 11.4415 3.37452 11.3008 3.16212C11.1602 2.94973 11.0847 2.70083 11.0837 2.44609V2.37484C11.0837 1.95491 10.9168 1.55218 10.6199 1.25525C10.323 0.958319 9.92025 0.791504 9.50033 0.791504C9.0804 0.791504 8.67767 0.958319 8.38074 1.25525C8.08381 1.55218 7.91699 1.95491 7.91699 2.37484V2.50942C7.91598 2.76417 7.84049 3.01306 7.69983 3.22546C7.55917 3.43785 7.35948 3.60448 7.12533 3.70484H7.06199C6.82321 3.81022 6.55834 3.84166 6.30153 3.79509C6.04471 3.74853 5.80774 3.6261 5.62116 3.44359L5.57366 3.39609C5.42661 3.24887 5.25199 3.13209 5.05977 3.05241C4.86756 2.97273 4.66153 2.93172 4.45345 2.93172C4.24538 2.93172 4.03934 2.97273 3.84713 3.05241C3.65492 3.13209 3.48029 3.24887 3.33324 3.39609C3.18603 3.54314 3.06924 3.71776 2.98956 3.90997C2.90988 4.10219 2.86887 4.30822 2.86887 4.5163C2.86887 4.72437 2.90988 4.9304 2.98956 5.12262C3.06924 5.31483 3.18603 5.48945 3.33324 5.6365L3.38074 5.684C3.56325 5.87058 3.68568 6.10756 3.73225 6.36437C3.77881 6.62118 3.74738 6.88606 3.64199 7.12484C3.55152 7.37084 3.38913 7.58393 3.17594 7.73641C2.96275 7.88889 2.70861 7.97371 2.44658 7.97984H2.37533C1.9554 7.97984 1.55267 8.14665 1.25574 8.44358C0.958807 8.74052 0.791992 9.14324 0.791992 9.56317C0.791992 9.9831 0.958807 10.3858 1.25574 10.6828C1.55267 10.9797 1.9554 11.1465 2.37533 11.1465H2.50991C2.76466 11.1475 3.01355 11.223 3.22594 11.3637C3.43834 11.5043 3.60497 11.704 3.70533 11.9382C3.81071 12.1769 3.84214 12.4418 3.79558 12.6986C3.74901 12.9554 3.62658 13.1924 3.44408 13.379L3.39658 13.4265C3.24936 13.5736 3.13258 13.7482 3.0529 13.9404C2.97322 14.1326 2.93221 14.3386 2.93221 14.5467C2.93221 14.7548 2.97322 14.9608 3.0529 15.153C3.13258 15.3452 3.24936 15.5199 3.39658 15.6669C3.54362 15.8141 3.71825 15.9309 3.91046 16.0106C4.10268 16.0903 4.30871 16.1313 4.51678 16.1313C4.72486 16.1313 4.93089 16.0903 5.12311 16.0106C5.31532 15.9309 5.48994 15.8141 5.63699 15.6669L5.68449 15.6194C5.87107 15.4369 6.10805 15.3145 6.36486 15.2679C6.62167 15.2214 6.88655 15.2528 7.12533 15.3582C7.37133 15.4486 7.58442 15.611 7.7369 15.8242C7.88938 16.0374 7.9742 16.2915 7.98033 16.5536V16.6248C7.98033 17.0448 8.14714 17.4475 8.44407 17.7444C8.74101 18.0414 9.14373 18.2082 9.56366 18.2082C9.98359 18.2082 10.3863 18.0414 10.6832 17.7444C10.9802 17.4475 11.147 17.0448 11.147 16.6248V16.4903C11.148 16.2355 11.2235 15.9866 11.3642 15.7742C11.5048 15.5618 11.7045 15.3952 11.9387 15.2948C12.1774 15.1895 12.4423 15.158 12.6991 15.2046C12.9559 15.2511 13.1929 15.3736 13.3795 15.5561L13.427 15.6036C13.574 15.7508 13.7487 15.8676 13.9409 15.9473C14.1331 16.0269 14.3391 16.068 14.5472 16.068C14.7553 16.068 14.9613 16.0269 15.1535 15.9473C15.3457 15.8676 15.5204 15.7508 15.6674 15.6036C15.8146 15.4565 15.9314 15.2819 16.0111 15.0897C16.0908 14.8975 16.1318 14.6915 16.1318 14.4834C16.1318 14.2753 16.0908 14.0693 16.0111 13.8771C15.9314 13.6848 15.8146 13.5102 15.6674 13.3632L15.6199 13.3157C15.4374 13.1291 15.315 12.8921 15.2684 12.6353ZM7.62524 9.5C7.62524 8.46447 8.46471 7.625 9.50024 7.625C10.5358 7.625 11.3752 8.46447 11.3752 9.5C11.3752 10.5355 10.5358 11.375 9.50024 11.375C8.46471 11.375 7.62524 10.5355 7.62524 9.5ZM9.50024 6.625C7.91243 6.625 6.62524 7.91218 6.62524 9.5C6.62524 11.0878 7.91243 12.375 9.50024 12.375C11.0881 12.375 12.3752 11.0878 12.3752 9.5C12.3752 7.91218 11.0881 6.625 9.50024 6.625Z" fill="white"/>
</svg>
