<svg width="23" height="22" viewBox="0 0 23 22" fill="none" xmlns="http://www.w3.org/2000/svg">
<path fill-rule="evenodd" clip-rule="evenodd" d="M6.44629 0H20.9998C22.1044 0 22.9998 0.895429 22.9998 2V19.6457C22.9998 20.7503 22.1044 21.6457 20.9998 21.6457H6.44629C5.34172 21.6457 4.44629 20.7503 4.44629 19.6457V13.3076H6.16747C6.9959 13.3076 7.66747 12.6361 7.66747 11.8076C7.66747 10.9792 6.9959 10.3076 6.16747 10.3076H4.44629V9.18431H6.16747C6.9959 9.18431 7.66747 8.51274 7.66747 7.68431C7.66747 6.85588 6.9959 6.18431 6.16747 6.18431H4.44629V5.06144H6.16747C6.9959 5.06144 7.66747 4.38986 7.66747 3.56144C7.66747 2.73301 6.9959 2.06144 6.16747 2.06144H4.44629V2C4.44629 0.89543 5.34172 0 6.44629 0ZM12.4121 7.21532C12.4121 6.491 12.9992 5.90382 13.7236 5.90382C14.4479 5.90382 15.0351 6.491 15.0351 7.21532C15.0351 7.93964 14.4479 8.52682 13.7236 8.52682C12.9992 8.52682 12.4121 7.93964 12.4121 7.21532ZM13.7236 4.40382C12.1708 4.40382 10.9121 5.66258 10.9121 7.21532C10.9121 8.76807 12.1708 10.0268 13.7236 10.0268C15.2763 10.0268 16.5351 8.76807 16.5351 7.21532C16.5351 5.66258 15.2763 4.40382 13.7236 4.40382ZM11.1467 11.6191C10.2482 11.6191 9.39704 12.0003 8.77742 12.6612C8.15934 13.3205 7.81982 14.2049 7.81982 15.1177V16.4921C7.81982 16.9063 8.15561 17.2421 8.56982 17.2421H18.8773C19.2915 17.2421 19.6273 16.9063 19.6273 16.4921V15.1177C19.6273 14.2049 19.2878 13.3205 18.6697 12.6612C18.0501 12.0003 17.199 11.6191 16.3004 11.6191H11.1467ZM9.87173 13.6871C10.2186 13.3171 10.6784 13.1191 11.1467 13.1191H16.3004C16.7688 13.1191 17.2285 13.3171 17.5754 13.6871C17.9239 14.0588 18.1273 14.5726 18.1273 15.1177V15.7421H9.31982V15.1177C9.31982 14.5726 9.5233 14.0588 9.87173 13.6871Z" fill="white"/>
<path d="M1 3.44644H5.96048" stroke="white" stroke-width="1.5" stroke-linecap="round"/>
<path d="M1.90186 7.56976H5.96043" stroke="white" stroke-width="1.5" stroke-linecap="round"/>
<path d="M2.80371 11.6926H5.96038" stroke="white" stroke-width="1.5" stroke-linecap="round"/>
</svg>
