<svg width="26" height="26" viewBox="0 0 26 26" fill="none" xmlns="http://www.w3.org/2000/svg">
<path fill-rule="evenodd" clip-rule="evenodd" d="M6.57227 0.106934C5.05349 0.106934 3.82227 1.33815 3.82227 2.85693V3.14258H5.32227V2.85693C5.32227 2.16658 5.88191 1.60693 6.57227 1.60693H23.1437C23.834 1.60693 24.3937 2.16658 24.3937 2.85693V22.8569C24.3937 23.5473 23.834 24.1069 23.1437 24.1069H6.57227C5.88191 24.1069 5.32227 23.5473 5.32227 22.8569V15.2856H3.82227V22.8569C3.82227 24.3757 5.05348 25.6069 6.57227 25.6069H23.1437C24.6625 25.6069 25.8937 24.3757 25.8937 22.8569V2.85693C25.8937 1.33815 24.6625 0.106934 23.1437 0.106934H6.57227ZM3.82227 12.2856H5.32227V10.7139H3.82227V12.2856ZM5.32227 6.14258V7.71387H3.82227V6.14258H5.32227Z" fill="#CFCFCF"/>
<path d="M20.5712 19.1427V17.6189C20.5712 16.8106 20.2701 16.0355 19.7343 15.4639C19.1985 14.8924 18.4718 14.5713 17.714 14.5713H11.9997C11.242 14.5713 10.5152 14.8924 9.97942 15.4639C9.4436 16.0355 9.14258 16.8106 9.14258 17.6189V19.1427" stroke="#CFCFCF" stroke-width="1.5" stroke-linecap="round" stroke-linejoin="round"/>
<path d="M14.856 11.1427C16.1184 11.1427 17.1417 10.1194 17.1417 8.857C17.1417 7.59464 16.1184 6.57129 14.856 6.57129C13.5937 6.57129 12.5703 7.59464 12.5703 8.857C12.5703 10.1194 13.5937 11.1427 14.856 11.1427Z" stroke="#CFCFCF" stroke-width="1.5" stroke-linecap="round" stroke-linejoin="round"/>
<path d="M0.75 4.67822H6.25" stroke="#CFCFCF" stroke-width="1.5" stroke-linecap="round"/>
<path d="M1.75 9.25H6.25" stroke="#CFCFCF" stroke-width="1.5" stroke-linecap="round"/>
<path d="M2.75 13.8213H6.25" stroke="#CFCFCF" stroke-width="1.5" stroke-linecap="round"/>
</svg>
