<svg width="26" height="25" viewBox="0 0 26 25" fill="none" xmlns="http://www.w3.org/2000/svg">
<path fill-rule="evenodd" clip-rule="evenodd" d="M23.1437 0.856934H6.57227C5.4677 0.856934 4.57227 1.75236 4.57227 2.85693V3.14258H6.6438C7.47223 3.14258 8.1438 3.81415 8.1438 4.64258C8.1438 5.47101 7.47223 6.14258 6.6438 6.14258H4.57227V7.71387H6.6438C7.47223 7.71387 8.1438 8.38544 8.1438 9.21387C8.1438 10.0423 7.47223 10.7139 6.6438 10.7139H4.57227V12.2856H6.6438C7.47223 12.2856 8.1438 12.9572 8.1438 13.7856C8.1438 14.6141 7.47223 15.2856 6.6438 15.2856H4.57227V22.8569C4.57227 23.9615 5.4677 24.8569 6.57227 24.8569H23.1437C24.2483 24.8569 25.1437 23.9615 25.1437 22.8569V2.85693C25.1437 1.75236 24.2483 0.856934 23.1437 0.856934Z" fill="#ED1C24"/>
<path d="M20.5712 19.1427V17.6189C20.5712 16.8106 20.2701 16.0355 19.7343 15.4639C19.1985 14.8924 18.4718 14.5713 17.714 14.5713H11.9997C11.242 14.5713 10.5152 14.8924 9.97942 15.4639C9.4436 16.0355 9.14258 16.8106 9.14258 17.6189V19.1427" stroke="white" stroke-linecap="round" stroke-linejoin="round"/>
<path d="M14.856 11.1427C16.1184 11.1427 17.1417 10.1194 17.1417 8.857C17.1417 7.59464 16.1184 6.57129 14.856 6.57129C13.5937 6.57129 12.5703 7.59464 12.5703 8.857C12.5703 10.1194 13.5937 11.1427 14.856 11.1427Z" stroke="white" stroke-linecap="round" stroke-linejoin="round"/>
<path d="M0.75 4.67822H6.25" stroke="#ED1C24" stroke-width="1.5" stroke-linecap="round"/>
<path d="M1.75 9.25H6.25" stroke="#ED1C24" stroke-width="1.5" stroke-linecap="round"/>
<path d="M2.75 13.8213H6.25" stroke="#ED1C24" stroke-width="1.5" stroke-linecap="round"/>
</svg>
