<svg width="19" height="19" viewBox="0 0 19 19" fill="none" xmlns="http://www.w3.org/2000/svg">
<path d="M3.96247 14.2941L3.96246 14.2941L0.251226 9.91516L0.251213 9.91514C0.0466994 9.67393 0.052517 9.31916 0.251206 9.08487L0.251226 9.08484L3.96246 4.70594L3.96247 4.70592C4.19174 4.43527 4.59698 4.40188 4.86754 4.63118C5.13809 4.86046 5.17157 5.26572 4.9423 5.53625L2.2668 8.69316L2.12725 8.85781H2.34309H15.5185C15.8733 8.85781 16.1609 9.14531 16.1609 9.5C16.1609 9.85469 15.8733 10.1422 15.5185 10.1422H2.34309H2.12725L2.2668 10.3068L4.9423 13.4637C5.17157 13.7343 5.13809 14.1395 4.86754 14.3688C4.59662 14.5983 4.19136 14.5642 3.96247 14.2941ZM17.6155 1.48438V1.38437H17.5155H11.8074C11.4527 1.38437 11.1652 1.0969 11.1652 0.742188C11.1652 0.387474 11.4527 0.1 11.8074 0.1H18.2578C18.6124 0.1 18.9 0.387486 18.9 0.742188V18.2578C18.9 18.6125 18.6124 18.9 18.2578 18.9H11.8074C11.4527 18.9 11.1652 18.6125 11.1652 18.2578C11.1652 17.9031 11.4527 17.6156 11.8074 17.6156H17.5155H17.6155V17.5156V1.48438Z" fill="#ED1C24" stroke="white" stroke-width="0.2"/>
</svg>
