<svg width="24" height="24" viewBox="0 0 24 24" fill="none" xmlns="http://www.w3.org/2000/svg">
<path d="M21.4403 11.6622L12.2503 20.8522C11.1244 21.9781 9.59747 22.6106 8.00529 22.6106C6.41311 22.6106 4.88613 21.9781 3.76029 20.8522C2.63445 19.7264 2.00195 18.1994 2.00195 16.6072C2.00195 15.015 2.63445 13.4881 3.76029 12.3622L12.9503 3.17222C13.7009 2.42166 14.7188 2 15.7803 2C16.8417 2 17.8597 2.42166 18.6103 3.17222C19.3609 3.92279 19.7825 4.94077 19.7825 6.00222C19.7825 7.06368 19.3609 8.08166 18.6103 8.83222L9.41029 18.0222C9.03501 18.3975 8.52602 18.6083 7.99529 18.6083C7.46456 18.6083 6.95557 18.3975 6.58029 18.0222C6.20501 17.6469 5.99418 17.138 5.99418 16.6072C5.99418 16.0765 6.20501 15.5675 6.58029 15.1922L15.0703 6.71222" stroke="#7A7A7A" stroke-linecap="round" stroke-linejoin="round"/>
</svg>
