<svg width="29" height="29" viewBox="0 0 29 29" fill="none" xmlns="http://www.w3.org/2000/svg">
<path d="M8 20.4H12.6333V26C12.6333 26.5523 13.081 27 13.6333 27H15.3667C15.919 27 16.3667 26.5523 16.3667 26V20.4H21C21.5523 20.4 22 19.9523 22 19.4V17.2C22 16.9374 21.8967 16.6854 21.7125 16.4983L19.8333 14.5903V7.2H19.9167C20.469 7.2 20.9167 6.75228 20.9167 6.2V4C20.9167 3.44772 20.469 3 19.9167 3H9.08333C8.53105 3 8.08333 3.44772 8.08333 4V6.2C8.08333 6.75228 8.53105 7.2 9.08333 7.2H9.16667V14.5903L7.28752 16.4983C7.10327 16.6854 7 16.9374 7 17.2V19.4C7 19.9523 7.44772 20.4 8 20.4Z" stroke="white" stroke-width="2" stroke-linecap="round" stroke-linejoin="round"/>
</svg>
