<svg width="19" height="20" viewBox="0 0 19 20" fill="none" xmlns="http://www.w3.org/2000/svg">
<path d="M11.4607 11.0962C11.7398 11.0962 11.9663 10.8702 11.9663 10.5918C11.9663 10.3134 11.7398 10.0874 11.4607 10.0874C11.1816 10.0874 10.9551 10.3134 10.9551 10.5918C10.9551 10.8702 11.1816 11.0962 11.4607 11.0962Z" fill="white"/>
<path d="M0.50561 11.0962C0.784683 11.0962 1.01122 10.8702 1.01122 10.5918C1.01122 10.3134 0.784683 10.0874 0.50561 10.0874C0.226537 10.0874 0 10.3134 0 10.5918C0 10.8702 0.226537 11.0962 0.50561 11.0962Z" fill="white"/>
<path d="M0 18.4969C0 18.7755 0.220052 19.0013 0.491565 19.0013H5.40722C5.67873 19.0013 5.89878 18.7755 5.89878 18.4969V13.4527C5.89878 13.174 5.67873 12.9482 5.40722 12.9482H0.491565C0.220052 12.9482 0 13.174 0 13.4527V18.4969ZM0.983131 13.9571H4.91565V17.9924H0.983131V13.9571Z" fill="white"/>
<path d="M5.40722 0H0.491565C0.220052 0 0 0.225806 0 0.504419V5.54861C0 5.82722 0.220052 6.05303 0.491565 6.05303H5.40722C5.67873 6.05303 5.89878 5.82722 5.89878 5.54861V0.504419C5.89878 0.225806 5.67873 0 5.40722 0ZM4.91565 5.04419H0.983131V1.00884H4.91565V5.04419Z" fill="white"/>
<path d="M18.8753 0.504419C18.8753 0.225806 18.6553 0 18.3838 0H13.4681C13.1966 0 12.9766 0.225806 12.9766 0.504419V5.54861C12.9766 5.82722 13.1966 6.05303 13.4681 6.05303H18.3838C18.6553 6.05303 18.8753 5.82722 18.8753 5.54861V0.504419ZM17.8922 5.04419H13.9597V1.00884H17.8922V5.04419Z" fill="white"/>
<path d="M18.8753 18.4969V13.4527C18.8753 13.174 18.6553 12.9482 18.3838 12.9482H13.4681C13.1966 12.9482 12.9766 13.174 12.9766 13.4527V18.4969C12.9766 18.7755 13.1966 19.0013 13.4681 19.0013H18.3838C18.6553 19.0013 18.8753 18.7755 18.8753 18.4969ZM17.8922 17.9924H13.9597V13.9571H17.8922V17.9924Z" fill="white"/>
<path d="M3.41387 14.9644H2.48691C2.23092 14.9644 2.02344 15.1902 2.02344 15.4688V16.4776C2.02344 16.7562 2.23092 16.982 2.48691 16.982H3.41387C3.66986 16.982 3.87734 16.7562 3.87734 16.4776V15.4688C3.87734 15.1902 3.66986 14.9644 3.41387 14.9644Z" fill="white"/>
<path d="M2.48691 4.03428H3.41387C3.66986 4.03428 3.87734 3.80847 3.87734 3.52986V2.52102C3.87734 2.24241 3.66986 2.0166 3.41387 2.0166H2.48691C2.23092 2.0166 2.02344 2.24241 2.02344 2.52102V3.52986C2.02344 3.80847 2.23092 4.03428 2.48691 4.03428Z" fill="white"/>
<path d="M15.4635 4.03428H16.3904C16.6464 4.03428 16.8539 3.80847 16.8539 3.52986V2.52102C16.8539 2.24241 16.6464 2.0166 16.3904 2.0166H15.4635C15.2075 2.0166 15 2.24241 15 2.52102V3.52986C15 3.80847 15.2075 4.03428 15.4635 4.03428Z" fill="white"/>
<path d="M15.4635 16.982H16.3904C16.6464 16.982 16.8539 16.7562 16.8539 16.4776V15.4688C16.8539 15.1902 16.6464 14.9644 16.3904 14.9644H15.4635C15.2075 14.9644 15 15.1902 15 15.4688V16.4776C15 16.7562 15.2075 16.982 15.4635 16.982Z" fill="white"/>
<path d="M2.02344 10.5708C2.02344 10.8378 2.24506 11.0542 2.51851 11.0542H8.95451V13.4712C8.95451 13.7382 9.17613 13.9546 9.44958 13.9546C9.72304 13.9546 9.94466 13.7382 9.94466 13.4712V10.5708C9.94466 10.3038 9.72304 10.0874 9.44958 10.0874H2.51851C2.24506 10.0874 2.02344 10.3038 2.02344 10.5708Z" fill="white"/>
<path d="M5.40722 9.07964C5.67873 9.07964 5.89878 8.85383 5.89878 8.57522C5.89878 8.29661 5.67873 8.0708 5.40722 8.0708H0.491565C0.220052 8.0708 0 8.29661 0 8.57522C0 8.85383 0.220052 9.07964 0.491565 9.07964H5.40722Z" fill="white"/>
<path d="M7.41577 9.07964H9.43821C9.71748 9.07964 9.94382 8.85383 9.94382 8.57522C9.94382 8.29661 9.71748 8.0708 9.43821 8.0708H7.41577C7.1365 8.0708 6.91016 8.29661 6.91016 8.57522C6.91016 8.85383 7.1365 9.07964 7.41577 9.07964Z" fill="white"/>
<path d="M7.41577 0C7.1365 0 6.91016 0.225806 6.91016 0.504419V5.54861C6.91016 5.82722 7.1365 6.05303 7.41577 6.05303H10.955V8.57513C10.955 8.85374 11.1814 9.07955 11.4606 9.07955H13.4831C13.7624 9.07955 13.9887 8.85374 13.9887 8.57513C13.9887 8.29651 13.7624 8.07071 13.4831 8.07071H11.9663V5.54861C11.9663 5.27 11.7399 5.04419 11.4606 5.04419H7.92138V0.504419C7.92138 0.225806 7.69504 0 7.41577 0Z" fill="white"/>
<path d="M18.3918 8.0708H15.4845C15.2169 8.0708 15 8.29661 15 8.57522C15 8.85383 15.2169 9.07964 15.4845 9.07964H18.3918C18.6594 9.07964 18.8763 8.85383 18.8763 8.57522C18.8763 8.29661 18.6594 8.0708 18.3918 8.0708Z" fill="white"/>
<path d="M18.3838 10.0874H13.4681C13.1966 10.0874 12.9766 10.3132 12.9766 10.5918C12.9766 10.8704 13.1966 11.0962 13.4681 11.0962H18.3838C18.6553 11.0962 18.8753 10.8704 18.8753 10.5918C18.8753 10.3132 18.6553 10.0874 18.3838 10.0874Z" fill="white"/>
<path d="M9.43821 14.9644H7.41577C7.1365 14.9644 6.91016 15.1902 6.91016 15.4688V18.4953C6.91016 18.7739 7.1365 18.9997 7.41577 18.9997C7.69504 18.9997 7.92138 18.7739 7.92138 18.4953V15.9732H9.43821C9.71748 15.9732 9.94382 15.7474 9.94382 15.4688C9.94382 15.1902 9.71748 14.9644 9.43821 14.9644Z" fill="white"/>
<path d="M10.956 17.9915H9.4392C9.15993 17.9915 8.93359 18.2173 8.93359 18.4959C8.93359 18.7745 9.15993 19.0003 9.4392 19.0003H11.4616C11.7409 19.0003 11.9673 18.7745 11.9673 18.4959V12.4429C11.9673 12.1643 11.7409 11.9385 11.4616 11.9385C11.1824 11.9385 10.956 12.1643 10.956 12.4429V17.9915Z" fill="white"/>
<path d="M11.4616 4.03535C11.7409 4.03535 11.9673 3.80955 11.9673 3.53093V0.504419C11.9673 0.225806 11.7409 0 11.4616 0C11.1824 0 10.956 0.225806 10.956 0.504419V3.02651H9.4392C9.15993 3.02651 8.93359 3.25232 8.93359 3.53093C8.93359 3.80955 9.15993 4.03535 9.4392 4.03535H11.4616Z" fill="white"/>
</svg>
