<svg width="39" height="39" viewBox="0 0 39 39" fill="none" xmlns="http://www.w3.org/2000/svg">
<rect width="39" height="39" rx="19.5" fill="#ED1C24"/>
<path d="M19 22C20.1046 22 21 21.1046 21 20C21 18.8954 20.1046 18 19 18C17.8954 18 17 18.8954 17 20C17 21.1046 17.8954 22 19 22Z" stroke="white" stroke-width="2" stroke-linecap="round" stroke-linejoin="round"/>
<path d="M23.2398 15.76C23.7977 16.3172 24.2402 16.979 24.5422 17.7074C24.8441 18.4357 24.9995 19.2165 24.9995 20.005C24.9995 20.7935 24.8441 21.5742 24.5422 22.3026C24.2402 23.031 23.7977 23.6928 23.2398 24.25M14.7598 24.24C14.202 23.6828 13.7594 23.021 13.4575 22.2926C13.1555 21.5642 13.0001 20.7835 13.0001 19.995C13.0001 19.2065 13.1555 18.4257 13.4575 17.6974C13.7594 16.969 14.202 16.3072 14.7598 15.75M26.0698 12.93C27.9445 14.8053 28.9977 17.3484 28.9977 20C28.9977 22.6516 27.9445 25.1947 26.0698 27.07M11.9298 27.07C10.0551 25.1947 9.00195 22.6516 9.00195 20C9.00195 17.3484 10.0551 14.8053 11.9298 12.93" stroke="white" stroke-width="2" stroke-linecap="round" stroke-linejoin="round"/>
</svg>
