<svg width="39" height="39" viewBox="0 0 39 39" fill="none" xmlns="http://www.w3.org/2000/svg">
<rect width="39" height="39" rx="19.5" fill="#ED1C24"/>
<path fill-rule="evenodd" clip-rule="evenodd" d="M29.4804 27.5636C29.8399 27.2042 30.0418 26.7167 30.0418 26.2083V15.6667C30.0418 15.1583 29.8399 14.6708 29.4804 14.3114C29.121 13.9519 28.6335 13.75 28.1252 13.75H24.2918L22.3752 10.875H16.6252L14.7085 13.75H10.8752C10.3668 13.75 9.87932 13.9519 9.51987 14.3114C9.16043 14.6708 8.9585 15.1583 8.9585 15.6667V26.2083C8.9585 26.7167 9.16043 27.2042 9.51987 27.5636C9.87932 27.9231 10.3668 28.125 10.8752 28.125H28.1252C28.6335 28.125 29.121 27.9231 29.4804 27.5636ZM16.6668 20.4583C16.6668 18.8935 17.9353 17.625 19.5001 17.625C21.0649 17.625 22.3335 18.8935 22.3335 20.4583C22.3335 22.0231 21.0649 23.2917 19.5001 23.2917C17.9353 23.2917 16.6668 22.0231 16.6668 20.4583ZM19.5001 15.625C16.8308 15.625 14.6668 17.789 14.6668 20.4583C14.6668 23.1277 16.8308 25.2917 19.5001 25.2917C22.1695 25.2917 24.3335 23.1277 24.3335 20.4583C24.3335 17.789 22.1695 15.625 19.5001 15.625Z" fill="white"/>
</svg>
