<svg width="39" height="39" viewBox="0 0 39 39" fill="none" xmlns="http://www.w3.org/2000/svg">
<rect width="39" height="39" rx="19.5" fill="#ED1C24"/>
<path d="M25 19L27 21L31 17" stroke="white" stroke-width="1.5" stroke-linecap="round" stroke-linejoin="round"/>
<path d="M25.1668 28.125V26.2083C25.1668 25.1917 24.763 24.2166 24.0441 23.4978C23.3252 22.7789 22.3502 22.375 21.3335 22.375H13.6668C12.6502 22.375 11.6751 22.7789 10.9563 23.4978C10.2374 24.2166 9.8335 25.1917 9.8335 26.2083V28.125" fill="white"/>
<path d="M17.4998 18.5417C19.6169 18.5417 21.3332 16.8254 21.3332 14.7083C21.3332 12.5912 19.6169 10.875 17.4998 10.875C15.3827 10.875 13.6665 12.5912 13.6665 14.7083C13.6665 16.8254 15.3827 18.5417 17.4998 18.5417Z" fill="white"/>
</svg>
