<svg width="39" height="39" viewBox="0 0 39 39" fill="none" xmlns="http://www.w3.org/2000/svg">
<rect width="39" height="39" rx="19.5" fill="#ED1C24"/>
<path fill-rule="evenodd" clip-rule="evenodd" d="M26.9998 9H12.4463C11.3417 9 10.4463 9.89543 10.4463 11V11.0614H12.1675C12.9959 11.0614 13.6675 11.733 13.6675 12.5614C13.6675 13.3899 12.9959 14.0614 12.1675 14.0614H10.4463V15.1843H12.1675C12.9959 15.1843 13.6675 15.8559 13.6675 16.6843C13.6675 17.5127 12.9959 18.1843 12.1675 18.1843H10.4463V19.3076H12.1675C12.9959 19.3076 13.6675 19.9792 13.6675 20.8076C13.6675 21.6361 12.9959 22.3076 12.1675 22.3076H10.4463V28.6457C10.4463 29.7503 11.3417 30.6457 12.4463 30.6457H26.9998C28.1044 30.6457 28.9998 29.7503 28.9998 28.6457V11C28.9998 9.89543 28.1044 9 26.9998 9Z" fill="white"/>
<path d="M24.8768 25.4921V24.1177C24.8768 23.3887 24.6053 22.6896 24.1221 22.1741C23.6388 21.6587 22.9834 21.3691 22.3 21.3691H17.1462C16.4628 21.3691 15.8073 21.6587 15.3241 22.1741C14.8408 22.6896 14.5693 23.3887 14.5693 24.1177V25.4921" stroke="#ED1C24" stroke-width="1.5" stroke-linecap="round" stroke-linejoin="round"/>
<path d="M19.7231 18.2768C20.8617 18.2768 21.7846 17.3538 21.7846 16.2153C21.7846 15.0768 20.8617 14.1538 19.7231 14.1538C18.5846 14.1538 17.6616 15.0768 17.6616 16.2153C17.6616 17.3538 18.5846 18.2768 19.7231 18.2768Z" stroke="#ED1C24" stroke-width="1.5" stroke-linecap="round" stroke-linejoin="round"/>
<path d="M7 12.4464H11.9605" stroke="white" stroke-width="1.5" stroke-linecap="round"/>
<path d="M7.90186 16.5698H11.9604" stroke="white" stroke-width="1.5" stroke-linecap="round"/>
<path d="M8.80371 20.6926H11.9604" stroke="white" stroke-width="1.5" stroke-linecap="round"/>
</svg>
