<svg width="39" height="39" viewBox="0 0 39 39" fill="none" xmlns="http://www.w3.org/2000/svg">
<rect width="39" height="39" rx="19.5" fill="#ED1C24"/>
<path fill-rule="evenodd" clip-rule="evenodd" d="M27 11H11C10.2506 11 9.59398 11.4177 9.25158 12.0319C9.36383 12.061 9.47287 12.1104 9.57346 12.1808L19 18.7793L28.4265 12.1808C28.5271 12.1104 28.6362 12.061 28.7484 12.0319C28.406 11.4178 27.7494 11 27 11ZM29 14.2207L19.5735 20.8192C19.2291 21.0603 18.7709 21.0603 18.4265 20.8192L9 14.2207V25C9 26.1 9.9 27 11 27H27C28.1 27 29 26.1 29 25V14.2207Z" fill="white"/>
</svg>
