<svg width="21" height="21" viewBox="0 0 21 21" fill="none" xmlns="http://www.w3.org/2000/svg">
<path d="M17.5 12.25H3.5C2.5335 12.25 1.75 13.0335 1.75 14V17.5C1.75 18.4665 2.5335 19.25 3.5 19.25H17.5C18.4665 19.25 19.25 18.4665 19.25 17.5V14C19.25 13.0335 18.4665 12.25 17.5 12.25Z" stroke="white" stroke-width="2" stroke-linecap="round" stroke-linejoin="round"/>
<path d="M17.5 1.75H3.5C2.5335 1.75 1.75 2.5335 1.75 3.5V7C1.75 7.9665 2.5335 8.75 3.5 8.75H17.5C18.4665 8.75 19.25 7.9665 19.25 7V3.5C19.25 2.5335 18.4665 1.75 17.5 1.75Z" fill="white"/>
<path d="M3.5 2.75H17.5V0.75H3.5V2.75ZM17.5 2.75C17.9142 2.75 18.25 3.08579 18.25 3.5H20.25C20.25 1.98122 19.0188 0.75 17.5 0.75V2.75ZM18.25 3.5V7H20.25V3.5H18.25ZM18.25 7C18.25 7.41421 17.9142 7.75 17.5 7.75V9.75C19.0188 9.75 20.25 8.51878 20.25 7H18.25ZM17.5 7.75H3.5V9.75H17.5V7.75ZM3.5 7.75C3.08579 7.75 2.75 7.41421 2.75 7H0.75C0.75 8.51878 1.98122 9.75 3.5 9.75V7.75ZM2.75 7V3.5H0.75V7H2.75ZM2.75 3.5C2.75 3.08579 3.08579 2.75 3.5 2.75V0.75C1.98122 0.75 0.75 1.98122 0.75 3.5H2.75Z" fill="white"/>
</svg>
