<svg width="18" height="14" viewBox="0 0 18 14" fill="none" xmlns="http://www.w3.org/2000/svg">
<path d="M5.31063 0C4.38282 0 3.41252 0.599577 2.55205 1.71635C1.69159 2.83312 1.02598 4.51612 1.06063 6.74311C1.06063 7.80627 1.39998 8.98581 2.0414 9.97115C2.13555 10.1163 2.29836 10.2033 2.40886 10.3393C1.95902 10.8826 1.1829 11.9124 1.1829 11.9124C1.11327 11.9718 1.05686 12.045 1.01733 12.1275C0.977794 12.21 0.956013 12.2999 0.953393 12.3914C0.950773 12.4828 0.967372 12.5738 1.00212 12.6584C1.03686 12.7431 1.08898 12.8194 1.1551 12.8827C1.22122 12.9459 1.29987 12.9945 1.38597 13.0255C1.47207 13.0564 1.5637 13.0689 1.65494 13.0622C1.74618 13.0555 1.83499 13.0297 1.91564 12.9865C1.99629 12.9433 2.06697 12.8837 2.12313 12.8115C2.12313 12.8115 2.90971 11.7588 3.32817 11.2586C3.81071 11.5652 4.36255 11.7692 4.98371 11.7692C6.10048 11.7692 7.14925 11.235 8.04829 10.5021C8.17579 10.3988 8.25294 10.2464 8.37521 10.1346C8.66355 10.3367 9.0029 10.4615 9.37625 10.4615C10.0033 10.4615 10.5355 10.1627 10.9912 9.80769C11.4463 9.45265 11.8367 9.02504 12.1963 8.602C12.4376 8.31823 12.6141 8.08285 12.8096 7.84615C12.7854 8.15412 12.7658 8.4575 12.7684 8.74519C12.7697 8.89558 12.7762 9.03092 12.8299 9.21531C12.856 9.30685 12.8796 9.43369 12.9933 9.5625C13.1071 9.69131 13.3386 9.80769 13.5445 9.80769C14.0787 9.80769 14.4762 9.50823 14.7705 9.21531C15.0647 8.92173 15.3007 8.58435 15.5682 8.27508C16.1004 7.65719 16.613 7.19231 17.3453 7.19231C17.5187 7.19231 17.685 7.12342 17.8077 7.0008C17.9303 6.87818 17.9992 6.71187 17.9992 6.53846C17.9992 6.36505 17.9303 6.19874 17.8077 6.07612C17.685 5.9535 17.5187 5.88462 17.3453 5.88462C16.0507 5.88462 15.1811 6.72808 14.5867 7.41723C14.4024 7.63104 14.2637 7.77685 14.1173 7.94815C14.1186 7.92462 14.1153 7.91088 14.1173 7.88669C14.1421 7.55454 14.1827 7.23088 14.1578 6.90592C14.1512 6.72271 14.1095 6.54247 14.0349 6.375C13.9434 6.17492 13.6374 5.88462 13.2993 5.88462C12.9456 5.88462 12.7462 6.04023 12.5847 6.171C12.4232 6.30177 12.2819 6.45346 12.1348 6.62019C11.8406 6.95365 11.53 7.34988 11.1952 7.74415C10.8598 8.13842 10.5048 8.52812 10.1733 8.78638C9.84244 9.044 9.56717 9.15385 9.37625 9.15385C9.33309 9.15385 9.31086 9.07996 9.27425 9.07211C9.61882 8.65823 10.0425 8.30254 10.3165 7.86642C10.9134 6.91442 11.3286 5.97223 11.4607 5.14904C11.5267 4.73712 11.5503 4.33696 11.3587 3.94335C11.1665 3.55038 10.6656 3.26923 10.2145 3.26923C9.33505 3.26923 8.59555 3.83808 8.08948 4.59719C7.58275 5.35696 7.27217 6.35342 7.27217 7.45777C7.27217 8.03119 7.45198 8.51308 7.63963 8.99038C7.48402 9.14077 7.37155 9.35 7.21071 9.48077C6.45486 10.0967 5.66436 10.4615 4.98371 10.4615C4.68752 10.4615 4.42336 10.3321 4.1664 10.1961C4.47175 9.78938 4.49528 9.843 4.82025 9.35785C6.15932 7.35773 7.53763 4.80119 7.53763 2.35058C7.53763 2.05962 7.51802 1.53327 7.21071 1.00169C6.9034 0.469462 6.21817 0 5.31063 0ZM5.31063 1.30769C5.84155 1.30769 5.94878 1.45154 6.06648 1.65488C6.18417 1.85888 6.22994 2.18319 6.22994 2.34992C6.22994 4.28008 4.99286 6.73658 3.71655 8.64319C3.45567 9.03288 3.45567 8.97927 3.2059 9.31731C3.18825 9.29115 3.16209 9.28265 3.14444 9.25585C2.65798 8.5085 2.36832 7.51008 2.36832 6.74246C2.36842 6.73592 2.36842 6.72938 2.36832 6.72285C2.33759 4.76458 2.91755 3.41112 3.59428 2.53365C4.27036 1.65619 5.12625 1.30769 5.31063 1.30769ZM10.1733 4.59719C10.1824 4.64558 10.2073 4.73188 10.1733 4.94438C10.0889 5.47008 9.74371 6.32596 9.21278 7.17204C9.06698 7.40415 8.83159 7.57742 8.66159 7.80561C8.6459 7.66962 8.57986 7.60685 8.57986 7.45777C8.57986 6.60123 8.82832 5.82773 9.17225 5.3125C9.50048 4.8195 9.88036 4.61615 10.1733 4.59719Z" fill="white"/>
</svg>
