<svg width="19" height="19" viewBox="0 0 19 19" fill="none" xmlns="http://www.w3.org/2000/svg">
<path d="M5.54232 11.0833C4.22815 11.0833 3.16732 12.1441 3.16732 13.4583C3.16732 14.4954 2.24898 15.0416 1.58398 15.0416C2.31232 16.0075 3.55523 16.625 4.75065 16.625C6.50024 16.625 7.91732 15.2079 7.91732 13.4583C7.91732 12.1441 6.85648 11.0833 5.54232 11.0833ZM16.3961 3.6654L15.3352 2.60457C15.262 2.53117 15.175 2.47295 15.0792 2.43322C14.9835 2.3935 14.8808 2.37305 14.7771 2.37305C14.6734 2.37305 14.5708 2.3935 14.475 2.43322C14.3792 2.47295 14.2922 2.53117 14.219 2.60457L7.12565 9.6979L9.30274 11.875L16.3961 4.78165C16.4695 4.70841 16.5277 4.62141 16.5674 4.52564C16.6071 4.42987 16.6276 4.32721 16.6276 4.22352C16.6276 4.11984 16.6071 4.01717 16.5674 3.9214C16.5277 3.82563 16.4695 3.73864 16.3961 3.6654Z" fill="white"/>
</svg>
