<svg width="31" height="31" viewBox="0 0 31 31" fill="none" xmlns="http://www.w3.org/2000/svg">
<path d="M3.875 7.75H6.45833H27.125" stroke="white" stroke-width="2" stroke-linecap="round" stroke-linejoin="round"/>
<path d="M10.334 7.74967V5.16634C10.334 4.4812 10.6062 3.82412 11.0906 3.33965C11.5751 2.85518 12.2322 2.58301 12.9173 2.58301H18.084C18.7691 2.58301 19.4262 2.85518 19.9107 3.33965C20.3951 3.82412 20.6673 4.4812 20.6673 5.16634V7.74967M24.5423 7.74967V25.833C24.5423 26.5182 24.2701 27.1752 23.7857 27.6597C23.3012 28.1442 22.6441 28.4163 21.959 28.4163H9.04232C8.35718 28.4163 7.70009 28.1442 7.21563 27.6597C6.73116 27.1752 6.45898 26.5182 6.45898 25.833V7.74967H24.5423Z" stroke="white" stroke-width="2" stroke-linecap="round" stroke-linejoin="round"/>
</svg>
