<svg width="17" height="22" viewBox="0 0 17 22" fill="none" xmlns="http://www.w3.org/2000/svg">
<path d="M8.50066 10.5217C7.47879 10.5217 6.47986 10.2132 5.63021 9.63513C4.78055 9.05705 4.11833 8.23542 3.72728 7.27412C3.33622 6.31282 3.23391 5.25504 3.43326 4.23453C3.63262 3.21402 4.1247 2.27662 4.84727 1.54088C5.56984 0.80513 6.49045 0.30408 7.49269 0.101089C8.49492 -0.101903 9.53377 0.00227944 10.4779 0.400462C11.4219 0.798645 12.2289 1.47294 12.7966 2.33809C13.3643 3.20324 13.6673 4.22037 13.6673 5.26087C13.6673 6.65614 13.123 7.99427 12.154 8.98087C11.1851 9.96747 9.87094 10.5217 8.50066 10.5217ZM8.50066 1.31522C7.73425 1.31522 6.98506 1.54663 6.34782 1.98018C5.71058 2.41374 5.21391 3.02996 4.92062 3.75094C4.62733 4.47191 4.55059 5.26525 4.70011 6.03063C4.84963 6.79601 5.21869 7.49906 5.76062 8.05087C6.30254 8.60268 6.993 8.97847 7.74468 9.13071C8.49636 9.28295 9.27549 9.20482 9.98355 8.90618C10.6916 8.60754 11.2968 8.10182 11.7226 7.45296C12.1484 6.8041 12.3757 6.04125 12.3757 5.26087C12.3757 4.21442 11.9674 3.21083 11.2407 2.47087C10.514 1.73092 9.52837 1.31522 8.50066 1.31522Z" fill="#ED1C24"/>
<path d="M10.4376 22.0005H1.39588C1.2246 22.0005 1.06033 21.9312 0.939209 21.8079C0.818091 21.6846 0.750048 21.5173 0.750048 21.3429V16.082C0.743078 14.0818 1.49236 12.1556 2.84255 10.7028C2.96417 10.6037 3.11689 10.5527 3.27254 10.5591C3.42819 10.5656 3.57629 10.6292 3.68955 10.7381C3.8028 10.847 3.87358 10.994 3.88883 11.1518C3.90409 11.3097 3.86279 11.4678 3.77255 11.5971C2.65909 12.8153 2.04058 14.4179 2.04172 16.082V20.6853H10.4376C10.6088 20.6853 10.7731 20.7546 10.8942 20.8779C11.0153 21.0012 11.0834 21.1685 11.0834 21.3429C11.0834 21.5173 11.0153 21.6846 10.8942 21.8079C10.7731 21.9312 10.6088 22.0005 10.4376 22.0005Z" fill="#ED1C24"/>
<path d="M15.6033 16.7393C15.432 16.7393 15.2678 16.67 15.1466 16.5467C15.0255 16.4234 14.9575 16.2561 14.9575 16.0817C14.9586 14.4176 14.3401 12.8149 13.2267 11.5968C13.1545 11.538 13.0956 11.4642 13.0539 11.3803C13.0122 11.2963 12.9887 11.2043 12.9849 11.1103C12.9811 11.0163 12.9972 10.9226 13.032 10.8355C13.0668 10.7484 13.1196 10.6699 13.1868 10.6053C13.2539 10.5407 13.3339 10.4916 13.4213 10.4611C13.5087 10.4307 13.6015 10.4197 13.6934 10.4289C13.7854 10.4382 13.8743 10.4673 13.9542 10.5145C14.0341 10.5617 14.1031 10.6258 14.1567 10.7025C15.5068 12.1553 16.2561 14.0815 16.2492 16.0817C16.2492 16.2561 16.1811 16.4234 16.06 16.5467C15.9389 16.67 15.7746 16.7393 15.6033 16.7393Z" fill="#ED1C24"/>
<path d="M15.6035 18.0543H13.666V16.0814C13.666 15.907 13.598 15.7398 13.4769 15.6164C13.3557 15.4931 13.1915 15.4238 13.0202 15.4238C12.8489 15.4238 12.6846 15.4931 12.5635 15.6164C12.4424 15.7398 12.3743 15.907 12.3743 16.0814V18.0543H10.4368C10.2656 18.0543 10.1013 18.1235 9.98018 18.2469C9.85906 18.3702 9.79102 18.5375 9.79102 18.7119C9.79102 18.8863 9.85906 19.0535 9.98018 19.1769C10.1013 19.3002 10.2656 19.3695 10.4368 19.3695H12.3743V21.3423C12.3743 21.5167 12.4424 21.684 12.5635 21.8073C12.6846 21.9306 12.8489 21.9999 13.0202 21.9999C13.1915 21.9999 13.3557 21.9306 13.4769 21.8073C13.598 21.684 13.666 21.5167 13.666 21.3423V19.3695H15.6035C15.7748 19.3695 15.9391 19.3002 16.0602 19.1769C16.1813 19.0535 16.2494 18.8863 16.2494 18.7119C16.2494 18.5375 16.1813 18.3702 16.0602 18.2469C15.9391 18.1235 15.7748 18.0543 15.6035 18.0543Z" fill="#ED1C24"/>
</svg>
